<mxfile host="app.diagrams.net" modified="2020-12-01T16:42:49.386Z" agent="5.0 (Windows NT 10.0; Win64; x64) AppleWebKit/537.36 (KHTML, like Gecko) Chrome/87.0.4280.66 Safari/537.36" etag="dg0vZfyQNN7jppW33tJx" version="13.10.1" type="github">
  <diagram id="w1-cJgne05kwdNBntMp3" name="Page-1">
    <mxGraphModel dx="1532" dy="708" grid="1" gridSize="10" guides="1" tooltips="1" connect="1" arrows="1" fold="1" page="1" pageScale="1" pageWidth="850" pageHeight="1100" math="0" shadow="0">
      <root>
        <mxCell id="0" />
        <mxCell id="1" parent="0" />
        <mxCell id="Epvj0yracvkwAPq-59SV-1" value="Grade" style="swimlane;fontStyle=1;align=center;verticalAlign=top;childLayout=stackLayout;horizontal=1;startSize=26;horizontalStack=0;resizeParent=1;resizeParentMax=0;resizeLast=0;collapsible=1;marginBottom=0;" vertex="1" parent="1">
          <mxGeometry x="40" y="200" width="190" height="130" as="geometry" />
        </mxCell>
        <mxCell id="Epvj0yracvkwAPq-59SV-2" value="+ score:double" style="text;strokeColor=none;fillColor=none;align=left;verticalAlign=top;spacingLeft=4;spacingRight=4;overflow=hidden;rotatable=0;points=[[0,0.5],[1,0.5]];portConstraint=eastwest;" vertex="1" parent="Epvj0yracvkwAPq-59SV-1">
          <mxGeometry y="26" width="190" height="26" as="geometry" />
        </mxCell>
        <mxCell id="Epvj0yracvkwAPq-59SV-4" value="+ setScore(score:double):void" style="text;strokeColor=none;fillColor=none;align=left;verticalAlign=top;spacingLeft=4;spacingRight=4;overflow=hidden;rotatable=0;points=[[0,0.5],[1,0.5]];portConstraint=eastwest;" vertex="1" parent="Epvj0yracvkwAPq-59SV-1">
          <mxGeometry y="52" width="190" height="26" as="geometry" />
        </mxCell>
        <mxCell id="Epvj0yracvkwAPq-59SV-33" value="+ getScore():double" style="text;strokeColor=none;fillColor=none;align=left;verticalAlign=top;spacingLeft=4;spacingRight=4;overflow=hidden;rotatable=0;points=[[0,0.5],[1,0.5]];portConstraint=eastwest;" vertex="1" parent="Epvj0yracvkwAPq-59SV-1">
          <mxGeometry y="78" width="190" height="26" as="geometry" />
        </mxCell>
        <mxCell id="Epvj0yracvkwAPq-59SV-34" value="+ getGrade():char" style="text;strokeColor=none;fillColor=none;align=left;verticalAlign=top;spacingLeft=4;spacingRight=4;overflow=hidden;rotatable=0;points=[[0,0.5],[1,0.5]];portConstraint=eastwest;" vertex="1" parent="Epvj0yracvkwAPq-59SV-1">
          <mxGeometry y="104" width="190" height="26" as="geometry" />
        </mxCell>
        <mxCell id="Epvj0yracvkwAPq-59SV-5" value="PassFailExam" style="swimlane;fontStyle=1;align=center;verticalAlign=top;childLayout=stackLayout;horizontal=1;startSize=30;horizontalStack=0;resizeParent=1;resizeParentMax=0;resizeLast=0;collapsible=1;marginBottom=0;" vertex="1" parent="1">
          <mxGeometry x="360" y="60" width="210" height="108" as="geometry" />
        </mxCell>
        <mxCell id="Epvj0yracvkwAPq-59SV-6" value="+ setScore(questionCorrect:int):void" style="text;strokeColor=none;fillColor=none;align=left;verticalAlign=top;spacingLeft=4;spacingRight=4;overflow=hidden;rotatable=0;points=[[0,0.5],[1,0.5]];portConstraint=eastwest;" vertex="1" parent="Epvj0yracvkwAPq-59SV-5">
          <mxGeometry y="30" width="210" height="26" as="geometry" />
        </mxCell>
        <mxCell id="Epvj0yracvkwAPq-59SV-46" value="+ getScore():double" style="text;strokeColor=none;fillColor=none;align=left;verticalAlign=top;spacingLeft=4;spacingRight=4;overflow=hidden;rotatable=0;points=[[0,0.5],[1,0.5]];portConstraint=eastwest;" vertex="1" parent="Epvj0yracvkwAPq-59SV-5">
          <mxGeometry y="56" width="210" height="26" as="geometry" />
        </mxCell>
        <mxCell id="Epvj0yracvkwAPq-59SV-8" value="+ getGrade():char" style="text;strokeColor=none;fillColor=none;align=left;verticalAlign=top;spacingLeft=4;spacingRight=4;overflow=hidden;rotatable=0;points=[[0,0.5],[1,0.5]];portConstraint=eastwest;" vertex="1" parent="Epvj0yracvkwAPq-59SV-5">
          <mxGeometry y="82" width="210" height="26" as="geometry" />
        </mxCell>
        <mxCell id="Epvj0yracvkwAPq-59SV-9" value="FinalExam" style="swimlane;fontStyle=1;align=center;verticalAlign=top;childLayout=stackLayout;horizontal=1;startSize=26;horizontalStack=0;resizeParent=1;resizeParentMax=0;resizeLast=0;collapsible=1;marginBottom=0;" vertex="1" parent="1">
          <mxGeometry x="40" y="40" width="210" height="78" as="geometry" />
        </mxCell>
        <mxCell id="Epvj0yracvkwAPq-59SV-10" value="+ setScore(questionCorrect:int):void" style="text;strokeColor=none;fillColor=none;align=left;verticalAlign=top;spacingLeft=4;spacingRight=4;overflow=hidden;rotatable=0;points=[[0,0.5],[1,0.5]];portConstraint=eastwest;" vertex="1" parent="Epvj0yracvkwAPq-59SV-9">
          <mxGeometry y="26" width="210" height="26" as="geometry" />
        </mxCell>
        <mxCell id="Epvj0yracvkwAPq-59SV-12" value="+ getScore():double" style="text;strokeColor=none;fillColor=none;align=left;verticalAlign=top;spacingLeft=4;spacingRight=4;overflow=hidden;rotatable=0;points=[[0,0.5],[1,0.5]];portConstraint=eastwest;" vertex="1" parent="Epvj0yracvkwAPq-59SV-9">
          <mxGeometry y="52" width="210" height="26" as="geometry" />
        </mxCell>
        <mxCell id="Epvj0yracvkwAPq-59SV-13" value="Analyzable" style="swimlane;fontStyle=1;align=center;verticalAlign=top;childLayout=stackLayout;horizontal=1;startSize=26;horizontalStack=0;resizeParent=1;resizeParentMax=0;resizeLast=0;collapsible=1;marginBottom=0;" vertex="1" parent="1">
          <mxGeometry x="600" y="226" width="160" height="104" as="geometry" />
        </mxCell>
        <mxCell id="Epvj0yracvkwAPq-59SV-14" value="+ getAverage():double" style="text;strokeColor=none;fillColor=none;align=left;verticalAlign=top;spacingLeft=4;spacingRight=4;overflow=hidden;rotatable=0;points=[[0,0.5],[1,0.5]];portConstraint=eastwest;" vertex="1" parent="Epvj0yracvkwAPq-59SV-13">
          <mxGeometry y="26" width="160" height="26" as="geometry" />
        </mxCell>
        <mxCell id="Epvj0yracvkwAPq-59SV-16" value="+ getHighest():Grade" style="text;strokeColor=none;fillColor=none;align=left;verticalAlign=top;spacingLeft=4;spacingRight=4;overflow=hidden;rotatable=0;points=[[0,0.5],[1,0.5]];portConstraint=eastwest;" vertex="1" parent="Epvj0yracvkwAPq-59SV-13">
          <mxGeometry y="52" width="160" height="26" as="geometry" />
        </mxCell>
        <mxCell id="Epvj0yracvkwAPq-59SV-47" value="+ getLowest():Grade" style="text;strokeColor=none;fillColor=none;align=left;verticalAlign=top;spacingLeft=4;spacingRight=4;overflow=hidden;rotatable=0;points=[[0,0.5],[1,0.5]];portConstraint=eastwest;" vertex="1" parent="Epvj0yracvkwAPq-59SV-13">
          <mxGeometry y="78" width="160" height="26" as="geometry" />
        </mxCell>
        <mxCell id="Epvj0yracvkwAPq-59SV-17" value="CourseGrade" style="swimlane;fontStyle=1;align=center;verticalAlign=top;childLayout=stackLayout;horizontal=1;startSize=26;horizontalStack=0;resizeParent=1;resizeParentMax=0;resizeLast=0;collapsible=1;marginBottom=0;" vertex="1" parent="1">
          <mxGeometry x="500" y="440" width="280" height="320" as="geometry" />
        </mxCell>
        <mxCell id="Epvj0yracvkwAPq-59SV-48" value="- grade:Grade[]" style="text;strokeColor=none;fillColor=none;align=left;verticalAlign=top;spacingLeft=4;spacingRight=4;overflow=hidden;rotatable=0;points=[[0,0.5],[1,0.5]];portConstraint=eastwest;" vertex="1" parent="Epvj0yracvkwAPq-59SV-17">
          <mxGeometry y="26" width="280" height="26" as="geometry" />
        </mxCell>
        <mxCell id="Epvj0yracvkwAPq-59SV-18" value="- NUM_GRADES:int" style="text;strokeColor=none;fillColor=none;align=left;verticalAlign=top;spacingLeft=4;spacingRight=4;overflow=hidden;rotatable=0;points=[[0,0.5],[1,0.5]];portConstraint=eastwest;" vertex="1" parent="Epvj0yracvkwAPq-59SV-17">
          <mxGeometry y="52" width="280" height="26" as="geometry" />
        </mxCell>
        <mxCell id="Epvj0yracvkwAPq-59SV-19" value="" style="line;strokeWidth=1;fillColor=none;align=left;verticalAlign=middle;spacingTop=-1;spacingLeft=3;spacingRight=3;rotatable=0;labelPosition=right;points=[];portConstraint=eastwest;" vertex="1" parent="Epvj0yracvkwAPq-59SV-17">
          <mxGeometry y="78" width="280" height="8" as="geometry" />
        </mxCell>
        <mxCell id="Epvj0yracvkwAPq-59SV-49" value="+ CourseGrade()" style="text;strokeColor=none;fillColor=none;align=left;verticalAlign=top;spacingLeft=4;spacingRight=4;overflow=hidden;rotatable=0;points=[[0,0.5],[1,0.5]];portConstraint=eastwest;" vertex="1" parent="Epvj0yracvkwAPq-59SV-17">
          <mxGeometry y="86" width="280" height="26" as="geometry" />
        </mxCell>
        <mxCell id="Epvj0yracvkwAPq-59SV-56" value="+ setLab(aLab:Grade):void" style="text;strokeColor=none;fillColor=none;align=left;verticalAlign=top;spacingLeft=4;spacingRight=4;overflow=hidden;rotatable=0;points=[[0,0.5],[1,0.5]];portConstraint=eastwest;" vertex="1" parent="Epvj0yracvkwAPq-59SV-17">
          <mxGeometry y="112" width="280" height="26" as="geometry" />
        </mxCell>
        <mxCell id="Epvj0yracvkwAPq-59SV-55" value="+ setPassFailExam(aPassFailExam:Grade):void" style="text;strokeColor=none;fillColor=none;align=left;verticalAlign=top;spacingLeft=4;spacingRight=4;overflow=hidden;rotatable=0;points=[[0,0.5],[1,0.5]];portConstraint=eastwest;" vertex="1" parent="Epvj0yracvkwAPq-59SV-17">
          <mxGeometry y="138" width="280" height="26" as="geometry" />
        </mxCell>
        <mxCell id="Epvj0yracvkwAPq-59SV-53" value="+ setEssay(anEssay:Grade):void" style="text;strokeColor=none;fillColor=none;align=left;verticalAlign=top;spacingLeft=4;spacingRight=4;overflow=hidden;rotatable=0;points=[[0,0.5],[1,0.5]];portConstraint=eastwest;" vertex="1" parent="Epvj0yracvkwAPq-59SV-17">
          <mxGeometry y="164" width="280" height="26" as="geometry" />
        </mxCell>
        <mxCell id="Epvj0yracvkwAPq-59SV-54" value="+ setFinalExam(aFinalExam:Grade):void" style="text;strokeColor=none;fillColor=none;align=left;verticalAlign=top;spacingLeft=4;spacingRight=4;overflow=hidden;rotatable=0;points=[[0,0.5],[1,0.5]];portConstraint=eastwest;" vertex="1" parent="Epvj0yracvkwAPq-59SV-17">
          <mxGeometry y="190" width="280" height="26" as="geometry" />
        </mxCell>
        <mxCell id="Epvj0yracvkwAPq-59SV-52" value="+ toString():String" style="text;strokeColor=none;fillColor=none;align=left;verticalAlign=top;spacingLeft=4;spacingRight=4;overflow=hidden;rotatable=0;points=[[0,0.5],[1,0.5]];portConstraint=eastwest;" vertex="1" parent="Epvj0yracvkwAPq-59SV-17">
          <mxGeometry y="216" width="280" height="26" as="geometry" />
        </mxCell>
        <mxCell id="Epvj0yracvkwAPq-59SV-20" value="+ getAverage():double" style="text;strokeColor=none;fillColor=none;align=left;verticalAlign=top;spacingLeft=4;spacingRight=4;overflow=hidden;rotatable=0;points=[[0,0.5],[1,0.5]];portConstraint=eastwest;" vertex="1" parent="Epvj0yracvkwAPq-59SV-17">
          <mxGeometry y="242" width="280" height="26" as="geometry" />
        </mxCell>
        <mxCell id="Epvj0yracvkwAPq-59SV-51" value="+ getHighest():double" style="text;strokeColor=none;fillColor=none;align=left;verticalAlign=top;spacingLeft=4;spacingRight=4;overflow=hidden;rotatable=0;points=[[0,0.5],[1,0.5]];portConstraint=eastwest;" vertex="1" parent="Epvj0yracvkwAPq-59SV-17">
          <mxGeometry y="268" width="280" height="26" as="geometry" />
        </mxCell>
        <mxCell id="Epvj0yracvkwAPq-59SV-50" value="+ getLowest():double" style="text;strokeColor=none;fillColor=none;align=left;verticalAlign=top;spacingLeft=4;spacingRight=4;overflow=hidden;rotatable=0;points=[[0,0.5],[1,0.5]];portConstraint=eastwest;" vertex="1" parent="Epvj0yracvkwAPq-59SV-17">
          <mxGeometry y="294" width="280" height="26" as="geometry" />
        </mxCell>
        <mxCell id="Epvj0yracvkwAPq-59SV-21" value="Lab" style="swimlane;fontStyle=1;align=center;verticalAlign=top;childLayout=stackLayout;horizontal=1;startSize=26;horizontalStack=0;resizeParent=1;resizeParentMax=0;resizeLast=0;collapsible=1;marginBottom=0;" vertex="1" parent="1">
          <mxGeometry x="356" y="240" width="160" height="78" as="geometry" />
        </mxCell>
        <mxCell id="Epvj0yracvkwAPq-59SV-22" value="+ setScore(sc:double):void" style="text;strokeColor=none;fillColor=none;align=left;verticalAlign=top;spacingLeft=4;spacingRight=4;overflow=hidden;rotatable=0;points=[[0,0.5],[1,0.5]];portConstraint=eastwest;" vertex="1" parent="Epvj0yracvkwAPq-59SV-21">
          <mxGeometry y="26" width="160" height="26" as="geometry" />
        </mxCell>
        <mxCell id="Epvj0yracvkwAPq-59SV-24" value="+ getScore():doule" style="text;strokeColor=none;fillColor=none;align=left;verticalAlign=top;spacingLeft=4;spacingRight=4;overflow=hidden;rotatable=0;points=[[0,0.5],[1,0.5]];portConstraint=eastwest;" vertex="1" parent="Epvj0yracvkwAPq-59SV-21">
          <mxGeometry y="52" width="160" height="26" as="geometry" />
        </mxCell>
        <mxCell id="Epvj0yracvkwAPq-59SV-29" value="Essay" style="swimlane;fontStyle=1;align=center;verticalAlign=top;childLayout=stackLayout;horizontal=1;startSize=26;horizontalStack=0;resizeParent=1;resizeParentMax=0;resizeLast=0;collapsible=1;marginBottom=0;" vertex="1" parent="1">
          <mxGeometry x="40" y="420" width="310" height="388" as="geometry" />
        </mxCell>
        <mxCell id="Epvj0yracvkwAPq-59SV-36" value="- grammar:double" style="text;strokeColor=none;fillColor=none;align=left;verticalAlign=top;spacingLeft=4;spacingRight=4;overflow=hidden;rotatable=0;points=[[0,0.5],[1,0.5]];portConstraint=eastwest;" vertex="1" parent="Epvj0yracvkwAPq-59SV-29">
          <mxGeometry y="26" width="310" height="26" as="geometry" />
        </mxCell>
        <mxCell id="Epvj0yracvkwAPq-59SV-37" value="- spelling:double" style="text;strokeColor=none;fillColor=none;align=left;verticalAlign=top;spacingLeft=4;spacingRight=4;overflow=hidden;rotatable=0;points=[[0,0.5],[1,0.5]];portConstraint=eastwest;" vertex="1" parent="Epvj0yracvkwAPq-59SV-29">
          <mxGeometry y="52" width="310" height="26" as="geometry" />
        </mxCell>
        <mxCell id="Epvj0yracvkwAPq-59SV-35" value="- correctLength:double" style="text;strokeColor=none;fillColor=none;align=left;verticalAlign=top;spacingLeft=4;spacingRight=4;overflow=hidden;rotatable=0;points=[[0,0.5],[1,0.5]];portConstraint=eastwest;" vertex="1" parent="Epvj0yracvkwAPq-59SV-29">
          <mxGeometry y="78" width="310" height="26" as="geometry" />
        </mxCell>
        <mxCell id="Epvj0yracvkwAPq-59SV-30" value="- content:double" style="text;strokeColor=none;fillColor=none;align=left;verticalAlign=top;spacingLeft=4;spacingRight=4;overflow=hidden;rotatable=0;points=[[0,0.5],[1,0.5]];portConstraint=eastwest;" vertex="1" parent="Epvj0yracvkwAPq-59SV-29">
          <mxGeometry y="104" width="310" height="26" as="geometry" />
        </mxCell>
        <mxCell id="Epvj0yracvkwAPq-59SV-31" value="" style="line;strokeWidth=1;fillColor=none;align=left;verticalAlign=middle;spacingTop=-1;spacingLeft=3;spacingRight=3;rotatable=0;labelPosition=right;points=[];portConstraint=eastwest;" vertex="1" parent="Epvj0yracvkwAPq-59SV-29">
          <mxGeometry y="130" width="310" height="8" as="geometry" />
        </mxCell>
        <mxCell id="Epvj0yracvkwAPq-59SV-38" value="+ setScore(grammar:double, spelling:double, &#xa;                   correctLength:double, content:double):void" style="text;strokeColor=none;fillColor=none;align=left;verticalAlign=top;spacingLeft=4;spacingRight=4;overflow=hidden;rotatable=0;points=[[0,0.5],[1,0.5]];portConstraint=eastwest;" vertex="1" parent="Epvj0yracvkwAPq-59SV-29">
          <mxGeometry y="138" width="310" height="42" as="geometry" />
        </mxCell>
        <mxCell id="Epvj0yracvkwAPq-59SV-42" value="+ setGrammar(grammar:double):void" style="text;strokeColor=none;fillColor=none;align=left;verticalAlign=top;spacingLeft=4;spacingRight=4;overflow=hidden;rotatable=0;points=[[0,0.5],[1,0.5]];portConstraint=eastwest;" vertex="1" parent="Epvj0yracvkwAPq-59SV-29">
          <mxGeometry y="180" width="310" height="26" as="geometry" />
        </mxCell>
        <mxCell id="Epvj0yracvkwAPq-59SV-45" value="+ getGrammar():double" style="text;strokeColor=none;fillColor=none;align=left;verticalAlign=top;spacingLeft=4;spacingRight=4;overflow=hidden;rotatable=0;points=[[0,0.5],[1,0.5]];portConstraint=eastwest;" vertex="1" parent="Epvj0yracvkwAPq-59SV-29">
          <mxGeometry y="206" width="310" height="26" as="geometry" />
        </mxCell>
        <mxCell id="Epvj0yracvkwAPq-59SV-44" value="+ setSpelling(spelling:double):void" style="text;strokeColor=none;fillColor=none;align=left;verticalAlign=top;spacingLeft=4;spacingRight=4;overflow=hidden;rotatable=0;points=[[0,0.5],[1,0.5]];portConstraint=eastwest;" vertex="1" parent="Epvj0yracvkwAPq-59SV-29">
          <mxGeometry y="232" width="310" height="26" as="geometry" />
        </mxCell>
        <mxCell id="Epvj0yracvkwAPq-59SV-43" value="+ getSpelling():double" style="text;strokeColor=none;fillColor=none;align=left;verticalAlign=top;spacingLeft=4;spacingRight=4;overflow=hidden;rotatable=0;points=[[0,0.5],[1,0.5]];portConstraint=eastwest;" vertex="1" parent="Epvj0yracvkwAPq-59SV-29">
          <mxGeometry y="258" width="310" height="26" as="geometry" />
        </mxCell>
        <mxCell id="Epvj0yracvkwAPq-59SV-40" value="+ setCorrectLength(correctLength:double):void" style="text;strokeColor=none;fillColor=none;align=left;verticalAlign=top;spacingLeft=4;spacingRight=4;overflow=hidden;rotatable=0;points=[[0,0.5],[1,0.5]];portConstraint=eastwest;" vertex="1" parent="Epvj0yracvkwAPq-59SV-29">
          <mxGeometry y="284" width="310" height="26" as="geometry" />
        </mxCell>
        <mxCell id="Epvj0yracvkwAPq-59SV-41" value="+ getCorrectLength():double" style="text;strokeColor=none;fillColor=none;align=left;verticalAlign=top;spacingLeft=4;spacingRight=4;overflow=hidden;rotatable=0;points=[[0,0.5],[1,0.5]];portConstraint=eastwest;" vertex="1" parent="Epvj0yracvkwAPq-59SV-29">
          <mxGeometry y="310" width="310" height="26" as="geometry" />
        </mxCell>
        <mxCell id="Epvj0yracvkwAPq-59SV-32" value="+ setContent(content:double):void" style="text;strokeColor=none;fillColor=none;align=left;verticalAlign=top;spacingLeft=4;spacingRight=4;overflow=hidden;rotatable=0;points=[[0,0.5],[1,0.5]];portConstraint=eastwest;" vertex="1" parent="Epvj0yracvkwAPq-59SV-29">
          <mxGeometry y="336" width="310" height="26" as="geometry" />
        </mxCell>
        <mxCell id="Epvj0yracvkwAPq-59SV-39" value="+ getContent():double" style="text;strokeColor=none;fillColor=none;align=left;verticalAlign=top;spacingLeft=4;spacingRight=4;overflow=hidden;rotatable=0;points=[[0,0.5],[1,0.5]];portConstraint=eastwest;" vertex="1" parent="Epvj0yracvkwAPq-59SV-29">
          <mxGeometry y="362" width="310" height="26" as="geometry" />
        </mxCell>
        <mxCell id="Epvj0yracvkwAPq-59SV-57" value="" style="endArrow=block;dashed=1;endFill=0;endSize=12;html=1;" edge="1" parent="1">
          <mxGeometry width="160" relative="1" as="geometry">
            <mxPoint x="684" y="440" as="sourcePoint" />
            <mxPoint x="684" y="330" as="targetPoint" />
          </mxGeometry>
        </mxCell>
        <mxCell id="Epvj0yracvkwAPq-59SV-58" value="Extends" style="endArrow=block;endSize=16;endFill=0;html=1;exitX=0.266;exitY=-0.003;exitDx=0;exitDy=0;exitPerimeter=0;" edge="1" parent="1" source="Epvj0yracvkwAPq-59SV-29">
          <mxGeometry width="160" relative="1" as="geometry">
            <mxPoint x="420" y="390" as="sourcePoint" />
            <mxPoint x="122" y="330" as="targetPoint" />
          </mxGeometry>
        </mxCell>
        <mxCell id="Epvj0yracvkwAPq-59SV-59" value="Extends" style="endArrow=block;endSize=16;endFill=0;html=1;entryX=1.031;entryY=0.038;entryDx=0;entryDy=0;entryPerimeter=0;exitX=0;exitY=0.5;exitDx=0;exitDy=0;" edge="1" parent="1">
          <mxGeometry width="160" relative="1" as="geometry">
            <mxPoint x="355" y="279" as="sourcePoint" />
            <mxPoint x="230.88999999999987" y="278.98799999999994" as="targetPoint" />
          </mxGeometry>
        </mxCell>
        <mxCell id="Epvj0yracvkwAPq-59SV-60" value="Extends" style="endArrow=block;endSize=16;endFill=0;html=1;entryX=0.5;entryY=0;entryDx=0;entryDy=0;" edge="1" parent="1" target="Epvj0yracvkwAPq-59SV-1">
          <mxGeometry width="160" relative="1" as="geometry">
            <mxPoint x="135" y="119" as="sourcePoint" />
            <mxPoint x="540" y="340" as="targetPoint" />
          </mxGeometry>
        </mxCell>
        <mxCell id="Epvj0yracvkwAPq-59SV-64" value="Extends" style="endArrow=block;endSize=16;endFill=0;html=1;exitX=0;exitY=0.5;exitDx=0;exitDy=0;entryX=1;entryY=0;entryDx=0;entryDy=0;" edge="1" parent="1" source="Epvj0yracvkwAPq-59SV-46" target="Epvj0yracvkwAPq-59SV-1">
          <mxGeometry width="160" relative="1" as="geometry">
            <mxPoint x="190" y="200" as="sourcePoint" />
            <mxPoint x="350" y="200" as="targetPoint" />
          </mxGeometry>
        </mxCell>
      </root>
    </mxGraphModel>
  </diagram>
</mxfile>
